# xmcd
#
# Track frame offsets:
#	150
#	15899
#	32775
#	50774
#	72289
#	88601
#	102380
#	123739
#	140909
#	162427
#	183496
#	202641
#	221769
#	241456
#	263388
#	274502
#	295875
#	311492
#	328503
#	338625
#
# Disc length: 4693 seconds
#
# Revision: 0
# Processed by: cddbd v1.5.2PL0 Copyright (c) Steve Scherf et al.
# Submitted via: audiograbber 1.83.01
#
DISCID=26125314
DTITLE=Various Artist - Clubbers Guide 2008 CD 2
DYEAR=2008
DGENRE=Club
TTITLE0=Ian Oliver feat. Shantel - Buccovina (Ian Oliver's Clubovina Mix)
TTITLE1=Oliver Koletzki - Technica Salsa
TTITLE2=Tocadisco feat. Chelonis R. Jones - Shrine (Tocadisco Club Mix)
TTITLE3=Noel Sinner - Pull Over (Dabruck and Klein Mix)
TTITLE4=DJ Tom - Rock on (Mondo RMX)
TTITLE5=Backside Artists - Freed from Desire (Massimo Nocito Mix)
TTITLE6=Ida Corr vs. Fedde Le Grand - Let me think about it (Club Mix)
TTITLE7=Groove Phenomenon - Funky Radio (Radio Ga Ga 2007)(Crockett Mix)
TTITLE8=Club 7 - Everybody (Moce Around)(Sonique System Mix)
TTITLE9=Axwell and Sebastian Ingrosso vs. Salem Al Fakir - It's true (Dabruck and K
TTITLE9=lein RMX)
TTITLE10=Outwork feat. Annbee - Out of Time (Vocal Extended Mix)
TTITLE11=Bob Sinclair and Steve Edwards - Together (Eddie Thoneik RMX)
TTITLE12=Antoine Clamaran and Mario Ochoa feat. Lulu Hughes - Give some Love (Kla
TTITLE12=as RMX)
TTITLE13=Notus feat. Sheena - Still in Love (Wiith you)(Tom Novy RMX Instrument
TTITLE13=al)
TTITLE14=Plastik Funk - Irresistible (Club Mix)
TTITLE15=Niki Belucci - Get up (Burnett and Cooper RMX)
TTITLE16=Starkillers - Big Bass (3.1 Mix)
TTITLE17=Swanky Tunes - No more Fear (Klaas RMX)
TTITLE18=StoneBridge - You don't know (Robbie Rivera RMX)
TTITLE19=D.O.N.S. and DBN feat. Kadoc - The Nighttrain (Original Mix)
EXTD=
EXTT0=
EXTT1=
EXTT2=
EXTT3=
EXTT4=
EXTT5=
EXTT6=
EXTT7=
EXTT8=
EXTT9=
EXTT10=
EXTT11=
EXTT12=
EXTT13=
EXTT14=
EXTT15=
EXTT16=
EXTT17=
EXTT18=
EXTT19=
PLAYORDER=
